<?xml version="1.0" encoding="UTF-8" standalone="no"?>
<!-- Created with Inkscape (http://www.inkscape.org/) -->

<svg
   xmlns:dc="http://purl.org/dc/elements/1.1/"
   xmlns:cc="http://creativecommons.org/ns#"
   xmlns:rdf="http://www.w3.org/1999/02/22-rdf-syntax-ns#"
   xmlns:svg="http://www.w3.org/2000/svg"
   xmlns="http://www.w3.org/2000/svg"
   xmlns:inkscape="http://www.inkscape.org/namespaces/inkscape"
   version="1.1"
   width="425.19684"
   height="425.19684"
   id="svg2985">
  <metadata
     id="metadata2991">
    <rdf:RDF>
      <cc:Work
         rdf:about="">
        <dc:format>image/svg+xml</dc:format>
        <dc:type
           rdf:resource="http://purl.org/dc/dcmitype/StillImage" />
        <dc:title></dc:title>
      </cc:Work>
    </rdf:RDF>
  </metadata>
  <defs
     id="defs2989">
    <inkscape:path-effect
       effect="spiro"
       id="path-effect3039" />
    <linearGradient
       id="linearGradient6445">
      <stop
         id="stop6447"
         style="stop-color:#000000;stop-opacity:1"
         offset="0" />
    </linearGradient>
    <linearGradient
       id="linearGradient5439">
      <stop
         id="stop5441"
         style="stop-color:#93b76b;stop-opacity:1"
         offset="0" />
    </linearGradient>
  </defs>
  <g
     transform="matrix(0.43398769,0,0,0.43398769,-19.34526,-22.086655)"
     id="g3940">
    <g
       id="g6210"
       style="fill:#ffffff;stroke:#000000">
      <g
         transform="matrix(-0.80901699,0.58778526,-0.58778526,-0.80901699,1701.9139,446.58134)"
         id="g5864"
         style="fill:#ffffff;stroke:#000000">
        <path
           d="m 1182.5825,358.6967 100.599,-138.46257"
           id="path5866"
           style="fill:#ffffff;stroke:#000000;stroke-width:5;stroke-linecap:butt;stroke-linejoin:miter;stroke-miterlimit:4;stroke-opacity:1;stroke-dasharray:none" />
        <path
           d="m 1197.5377,335.15376 c 0.1483,-0.12071 18.8711,-25.82757 41.6069,-57.12589 l 41.334,-56.90829 -38.1706,12.30144 c -20.9943,6.76469 -38.2046,12.3672 -38.2454,12.44983 -0.041,0.0809 0.4522,2.31911 1.0966,4.97339 3.7747,15.5455 4.3575,30.96826 1.8006,47.64174 -1.6274,10.6107 -4.641,22.2839 -8.3948,32.51545 -1.3961,3.80542 -1.5967,4.61343 -1.0303,4.15107 l 0,0 z"
           id="path5868"
           style="fill:#ffffff;fill-opacity:1;stroke:#000000" />
        <path
           d="m 1285,305 0,-87 -82.7418,26.88442"
           id="path5870"
           style="fill:none;stroke:#000000;stroke-width:5;stroke-linecap:square;stroke-linejoin:miter;stroke-miterlimit:4;stroke-opacity:1;stroke-dasharray:none" />
        <path
           d="m 1200.001,337.65119 c 0.069,-0.17816 18.732,-25.92861 41.4728,-57.22322 l 41.3466,-56.89928 0.096,40.10383 c 0.054,22.0571 0.044,40.15646 -0.022,40.22082 -0.064,0.0643 -2.3453,0.28658 -5.0689,0.49384 -15.951,1.21389 -30.799,5.42546 -45.8663,13.00976 -9.5884,4.82647 -19.7591,11.29993 -28.3299,18.03169 -3.1878,2.50368 -3.8943,2.94415 -3.6295,2.26256 l 0,0 z"
           id="path5872"
           style="fill:#ffffff;fill-opacity:1;stroke:#000000" />
      </g>
      <g
         transform="matrix(-0.809017,-0.58778525,0.58778525,-0.809017,984.8158,1622.1517)"
         id="g5854"
         style="fill:#ffffff;stroke:#000000">
        <path
           d="m 1182.5825,358.6967 100.599,-138.46257"
           id="path5856"
           style="fill:#ffffff;stroke:#000000;stroke-width:5;stroke-linecap:butt;stroke-linejoin:miter;stroke-miterlimit:4;stroke-opacity:1;stroke-dasharray:none" />
        <path
           d="m 1197.5377,335.15376 c 0.1483,-0.12071 18.8711,-25.82757 41.6069,-57.12589 l 41.334,-56.90829 -38.1706,12.30144 c -20.9943,6.76469 -38.2046,12.3672 -38.2454,12.44983 -0.041,0.0809 0.4522,2.31911 1.0966,4.97339 3.7747,15.5455 4.3575,30.96826 1.8006,47.64174 -1.6274,10.6107 -4.641,22.2839 -8.3948,32.51545 -1.3961,3.80542 -1.5967,4.61343 -1.0303,4.15107 l 0,0 z"
           id="path5858"
           style="fill:#ffffff;fill-opacity:1;stroke:#000000" />
        <path
           d="m 1285,305 0,-87 -82.7418,26.88442"
           id="path5860"
           style="fill:none;stroke:#000000;stroke-width:5;stroke-linecap:square;stroke-linejoin:miter;stroke-miterlimit:4;stroke-opacity:1;stroke-dasharray:none" />
        <path
           d="m 1200.001,337.65119 c 0.069,-0.17816 18.732,-25.92861 41.4728,-57.22322 l 41.3466,-56.89928 0.096,40.10383 c 0.054,22.0571 0.044,40.15646 -0.022,40.22082 -0.064,0.0643 -2.3453,0.28658 -5.0689,0.49384 -15.951,1.21389 -30.799,5.42546 -45.8663,13.00976 -9.5884,4.82647 -19.7591,11.29993 -28.3299,18.03169 -3.1878,2.50368 -3.8943,2.94415 -3.6295,2.26256 l 0,0 z"
           id="path5862"
           style="fill:#ffffff;fill-opacity:1;stroke:#000000" />
      </g>
      <g
         transform="matrix(0.30901699,-0.95105652,0.95105652,0.30901699,-354.81357,1303.4222)"
         id="g5844"
         style="fill:#ffffff;stroke:#000000">
        <path
           d="m 1182.5825,358.6967 100.599,-138.46257"
           id="path5846"
           style="fill:#ffffff;stroke:#000000;stroke-width:5;stroke-linecap:butt;stroke-linejoin:miter;stroke-miterlimit:4;stroke-opacity:1;stroke-dasharray:none" />
        <path
           d="m 1197.5377,335.15376 c 0.1483,-0.12071 18.8711,-25.82757 41.6069,-57.12589 l 41.334,-56.90829 -38.1706,12.30144 c -20.9943,6.76469 -38.2046,12.3672 -38.2454,12.44983 -0.041,0.0809 0.4522,2.31911 1.0966,4.97339 3.7747,15.5455 4.3575,30.96826 1.8006,47.64174 -1.6274,10.6107 -4.641,22.2839 -8.3948,32.51545 -1.3961,3.80542 -1.5967,4.61343 -1.0303,4.15107 l 0,0 z"
           id="path5848"
           style="fill:#ffffff;fill-opacity:1;stroke:#000000" />
        <path
           d="m 1285,305 0,-87 -82.7418,26.88442"
           id="path5850"
           style="fill:none;stroke:#000000;stroke-width:5;stroke-linecap:square;stroke-linejoin:miter;stroke-miterlimit:4;stroke-opacity:1;stroke-dasharray:none" />
        <path
           d="m 1200.001,337.65119 c 0.069,-0.17816 18.732,-25.92861 41.4728,-57.22322 l 41.3466,-56.89928 0.096,40.10383 c 0.054,22.0571 0.044,40.15646 -0.022,40.22082 -0.064,0.0643 -2.3453,0.28658 -5.0689,0.49384 -15.951,1.21389 -30.799,5.42546 -45.8663,13.00976 -9.5884,4.82647 -19.7591,11.29993 -28.3299,18.03169 -3.1878,2.50368 -3.8943,2.94415 -3.6295,2.26256 l 0,0 z"
           id="path5852"
           style="fill:#ffffff;fill-opacity:1;stroke:#000000" />
      </g>
      <g
         transform="translate(-465.6521,-69.133858)"
         id="g5838"
         style="fill:#ffffff;stroke:#000000">
        <path
           d="m 1182.5825,358.6967 100.599,-138.46257"
           id="path2999-1-7"
           style="fill:#ffffff;stroke:#000000;stroke-width:5;stroke-linecap:butt;stroke-linejoin:miter;stroke-miterlimit:4;stroke-opacity:1;stroke-dasharray:none" />
        <path
           d="m 1197.5377,335.15376 c 0.1483,-0.12071 18.8711,-25.82757 41.6069,-57.12589 l 41.334,-56.90829 -38.1706,12.30144 c -20.9943,6.76469 -38.2046,12.3672 -38.2454,12.44983 -0.041,0.0809 0.4522,2.31911 1.0966,4.97339 3.7747,15.5455 4.3575,30.96826 1.8006,47.64174 -1.6274,10.6107 -4.641,22.2839 -8.3948,32.51545 -1.3961,3.80542 -1.5967,4.61343 -1.0303,4.15107 l 0,0 z"
           id="path5816"
           style="fill:#ffffff;fill-opacity:1;stroke:#000000" />
        <path
           d="m 1285,305 0,-87 -82.7418,26.88442"
           id="path5792"
           style="fill:none;stroke:#000000;stroke-width:5;stroke-linecap:square;stroke-linejoin:miter;stroke-miterlimit:4;stroke-opacity:1;stroke-dasharray:none" />
        <path
           d="m 1200.001,337.65119 c 0.069,-0.17816 18.732,-25.92861 41.4728,-57.22322 l 41.3466,-56.89928 0.096,40.10383 c 0.054,22.0571 0.044,40.15646 -0.022,40.22082 -0.064,0.0643 -2.3453,0.28658 -5.0689,0.49384 -15.951,1.21389 -30.799,5.42546 -45.8663,13.00976 -9.5884,4.82647 -19.7591,11.29993 -28.3299,18.03169 -3.1878,2.50368 -3.8943,2.94415 -3.6295,2.26256 l 0,0 z"
           id="path5814"
           style="fill:#ffffff;fill-opacity:1;stroke:#000000" />
      </g>
      <g
         transform="matrix(0.309017,0.95105651,-0.95105651,0.309017,805.4755,-598.69076)"
         id="g5874"
         style="fill:#ffffff;stroke:#000000">
        <path
           d="m 1182.5825,358.6967 100.599,-138.46257"
           id="path5876"
           style="fill:#ffffff;stroke:#000000;stroke-width:5;stroke-linecap:butt;stroke-linejoin:miter;stroke-miterlimit:4;stroke-opacity:1;stroke-dasharray:none" />
        <path
           d="m 1197.5377,335.15376 c 0.1483,-0.12071 18.8711,-25.82757 41.6069,-57.12589 l 41.334,-56.90829 -38.1706,12.30144 c -20.9943,6.76469 -38.2046,12.3672 -38.2454,12.44983 -0.041,0.0809 0.4522,2.31911 1.0966,4.97339 3.7747,15.5455 4.3575,30.96826 1.8006,47.64174 -1.6274,10.6107 -4.641,22.2839 -8.3948,32.51545 -1.3961,3.80542 -1.5967,4.61343 -1.0303,4.15107 l 0,0 z"
           id="path5878"
           style="fill:#ffffff;fill-opacity:1;stroke:#000000" />
        <path
           d="m 1285,305 0,-87 -82.7418,26.88442"
           id="path5880"
           style="fill:none;stroke:#000000;stroke-width:5;stroke-linecap:square;stroke-linejoin:miter;stroke-miterlimit:4;stroke-opacity:1;stroke-dasharray:none" />
        <path
           d="m 1200.001,337.65119 c 0.069,-0.17816 18.732,-25.92861 41.4728,-57.22322 l 41.3466,-56.89928 0.096,40.10383 c 0.054,22.0571 0.044,40.15646 -0.022,40.22082 -0.064,0.0643 -2.3453,0.28658 -5.0689,0.49384 -15.951,1.21389 -30.799,5.42546 -45.8663,13.00976 -9.5884,4.82647 -19.7591,11.29993 -28.3299,18.03169 -3.1878,2.50368 -3.8943,2.94415 -3.6295,2.26256 l 0,0 z"
           id="path5882"
           style="fill:#ffffff;fill-opacity:1;stroke:#000000" />
      </g>
    </g>
    <g
       transform="matrix(1.0178685,0,0,1.0178685,-483.52055,-80.033617)"
       id="g5637"
       style="fill:#ffffff;fill-opacity:1;stroke:#000000;stroke-width:7.08661413;stroke-miterlimit:4;stroke-opacity:1;stroke-dasharray:none">
      <path
         d="M 557.75872,466.3071 C 591.75059,361.69088 709.19233,210.58681 840.10516,389.9236 710,210 890,145 1000,145 c 110,0 290,65 159.8949,244.92358 130.9128,-179.33673 248.3545,-28.23266 282.3464,76.38353 33.9919,104.61616 27.7963,295.89248 -183.5262,227.75459 211.0135,69.08737 103.5965,227.47482 14.6046,292.1312 -88.9918,64.6564 -272.8209,117.8716 -273.3201,-104.16353 C 999.50085,1104.0645 815.67174,1050.8493 726.67987,986.19291 637.688,921.53653 530.27098,763.14907 741.28468,694.06168 529.96247,762.1996 523.76686,570.92332 557.75872,466.3071 z"
         id="path5635"
         style="fill:#ffffff;fill-opacity:1;stroke:#000000;stroke-width:7.08661413;stroke-linecap:butt;stroke-linejoin:miter;stroke-miterlimit:4;stroke-opacity:1;stroke-dasharray:none" />
    </g>
    <g
       transform="matrix(4.2483408,0,0,4.2483408,-2842.1825,-1616.206)"
       id="g5422"
       style="fill:none;stroke:#000000;stroke-width:1.93474293;stroke-miterlimit:4;stroke-dasharray:none">
      <g
         transform="matrix(1.6222733,0,0,1.6222733,702.31813,415.27565)"
         id="g5388"
         style="fill:none;stroke:#000000">
        <path
           d="M 57,98.501 43.999,85.5 46.217,83.282 30.717,67.781 28.499,70 15.498,57 34.987,37.51 l 13.002,13 -4.234,4.235 2.66,2.661 10.992,-10.993 -2.66,-2.66 -4.089,4.089 L 37.656,34.841 57,15.497 70.001,28.498 67.784,30.716 83.282,46.216 85.501,43.998 98.503,57 79.159,76.343 66.157,63.342 70.246,59.253 68.083,57.09 57.091,68.083 59.253,70.245 63.487,66.011 76.49,79.014 57,98.501 z"
           id="path5390"
           style="fill:none;stroke:#000000" />
      </g>
    </g>
    <g
       id="g6179"
       style="fill:none;stroke:#000000;stroke-width:8.16453362;stroke-miterlimit:4;stroke-dasharray:none">
      <path
         d="m 645.72501,255.70624 c 0,0 78.03422,-78.39207 4.9031,-96.29309 -31.17956,-7.63213 -58.01947,18.34154 -116.04037,18.34154 -58.0209,0 -90.58111,-23.68098 -116.04038,-18.34154 -73.76262,15.46984 4.90311,96.29309 4.90311,96.29309"
         id="path3041"
         style="fill:none;stroke:#000000;stroke-width:8.16453362;stroke-linecap:butt;stroke-linejoin:miter;stroke-miterlimit:4;stroke-opacity:1;stroke-dasharray:none" />
      <path
         d="m 297.72783,346.84546 c 0,0 -50.44139,-98.43944 -90.06503,-34.41933 -16.8936,27.29506 -0.48516,60.84764 -18.41461,116.0288 -17.92944,55.18115 -50.51305,78.82993 -53.30229,104.69311 -8.08121,74.93286 93.09532,25.09306 93.09532,25.09306"
         id="path3849"
         style="fill:none;stroke:#000000;stroke-width:8.16453362;stroke-linecap:butt;stroke-linejoin:miter;stroke-miterlimit:4;stroke-opacity:1;stroke-dasharray:none" />
      <path
         d="m 276.86933,705.97402 c 0,0 -109.20872,17.55315 -60.56635,75.02077 20.73874,24.50141 57.71962,19.26437 104.65952,53.3682 46.93989,34.10383 59.36233,72.40056 83.09775,83.04544 68.76815,30.84122 52.63296,-80.78472 52.63296,-80.78472"
         id="path3851"
         style="fill:none;stroke:#000000;stroke-width:8.16453362;stroke-linecap:butt;stroke-linejoin:miter;stroke-miterlimit:4;stroke-opacity:1;stroke-dasharray:none" />
      <path
         d="m 611.97525,836.78844 c 0,0 -17.05331,109.28789 52.63297,80.78473 29.71084,-12.15236 36.15785,-48.94161 83.09774,-83.04544 46.9399,-34.10382 87.201,-34.08392 104.65953,-53.3682 50.58227,-55.87195 -60.56637,-75.02077 -60.56637,-75.02077"
         id="path3853"
         style="fill:none;stroke:#000000;stroke-width:8.16453362;stroke-linecap:butt;stroke-linejoin:miter;stroke-miterlimit:4;stroke-opacity:1;stroke-dasharray:none" />
      <path
         d="m 839.94059,558.50766 c 0,0 98.6692,49.99048 93.09533,-25.09307 -2.37643,-32.01198 -35.37285,-49.51195 -53.3023,-104.6931 -17.92943,-55.18116 -5.46914,-93.46559 -18.4146,-116.02881 -37.5066,-65.37198 -90.06503,34.41935 -90.06503,34.41935"
         id="path3855"
         style="fill:none;stroke:#000000;stroke-width:8.16453362;stroke-linecap:butt;stroke-linejoin:miter;stroke-miterlimit:4;stroke-opacity:1;stroke-dasharray:none" />
    </g>
    <path
       d="m 977.1684,534.87115 a 468.01224,468.01224 0 1 1 0,-5e-5"
       transform="matrix(1.0464992,0,0,1.0464992,1.5185152,-18.880323)"
       id="path3170"
       style="fill:none;stroke:none" />
  </g>
</svg>
