<?xml version="1.0" encoding="UTF-8" standalone="no"?>
<!-- Created with Inkscape (http://www.inkscape.org/) -->

<svg
   id="svg2985"
   version="1.1"
   inkscape:version="1.4.3 (1:1.4.3+202512261034+0d15f75042)"
   width="425.19684"
   height="425.19684"
   sodipodi:docname="logo-bw.svg"
   inkscape:export-filename="/home/tails/Pictures/Designs/Hackspace/Logo/png/logo-bw.png"
   inkscape:export-xdpi="96.096672"
   inkscape:export-ydpi="96.096672"
   xmlns:inkscape="http://www.inkscape.org/namespaces/inkscape"
   xmlns:sodipodi="http://sodipodi.sourceforge.net/DTD/sodipodi-0.dtd"
   xmlns="http://www.w3.org/2000/svg"
   xmlns:svg="http://www.w3.org/2000/svg"
   xmlns:rdf="http://www.w3.org/1999/02/22-rdf-syntax-ns#"
   xmlns:cc="http://creativecommons.org/ns#"
   xmlns:dc="http://purl.org/dc/elements/1.1/">
  <metadata
     id="metadata2991">
    <rdf:RDF>
      <cc:Work
         rdf:about="">
        <dc:format>image/svg+xml</dc:format>
        <dc:type
           rdf:resource="http://purl.org/dc/dcmitype/StillImage" />
        <dc:title />
      </cc:Work>
    </rdf:RDF>
  </metadata>
  <defs
     id="defs2989">
    <linearGradient
       id="linearGradient6445"
       inkscape:swatch="solid">
      <stop
         style="stop-color:#000000;stop-opacity:1;"
         offset="0"
         id="stop6447" />
    </linearGradient>
    <linearGradient
       id="linearGradient5439"
       inkscape:swatch="solid">
      <stop
         style="stop-color:#93b76b;stop-opacity:1;"
         offset="0"
         id="stop5441" />
    </linearGradient>
  </defs>
  <sodipodi:namedview
     pagecolor="#ffffff"
     bordercolor="#666666"
     borderopacity="1"
     objecttolerance="10"
     gridtolerance="10"
     guidetolerance="10"
     inkscape:pageopacity="0"
     inkscape:pageshadow="2"
     inkscape:window-width="1920"
     inkscape:window-height="1029"
     id="namedview2987"
     showgrid="false"
     showguides="true"
     inkscape:guide-bbox="true"
     inkscape:zoom="1.4142136"
     inkscape:cx="74.953319"
     inkscape:cy="214.60691"
     inkscape:window-x="0"
     inkscape:window-y="25"
     inkscape:window-maximized="1"
     inkscape:current-layer="svg2985"
     units="mm"
     fit-margin-top="20"
     fit-margin-left="20"
     fit-margin-right="20"
     fit-margin-bottom="20"
     inkscape:showpageshadow="0"
     inkscape:pagecheckerboard="0"
     inkscape:deskcolor="#d1d1d1">
    <inkscape:grid
       type="xygrid"
       id="grid2995"
       empspacing="5"
       visible="true"
       enabled="true"
       snapvisiblegridlinesonly="true"
       originx="-465.6521px"
       originy="-31.980163px"
       spacingy="1"
       spacingx="1"
       units="mm" />
  </sodipodi:namedview>
  <g
     id="g9"
     style="fill:#000000;stroke:#008000">
    <path
       style="display:inline;opacity:1;fill:#000000;stroke:none;stroke-width:1px;stroke-linecap:butt;stroke-linejoin:miter;stroke-opacity:1"
       d="m 87.829178,81.262511 0.05863,-40.323443 38.372102,12.473774 -0.67232,2.063839 -34.044615,-10.983344 42.646725,58.450323 -1.74745,1.27839 z"
       id="path5"
       sodipodi:nodetypes="cccccccc"
       inkscape:transform-center-x="103.34574"
       inkscape:transform-center-y="-140.44233" />
    <path
       style="opacity:1;fill:#000000;stroke:none;stroke-width:1px;stroke-linecap:butt;stroke-linejoin:miter;stroke-opacity:1"
       d="m 300.56806,51.973315 38.36799,-12.404868 -0.006,40.348645 -2.17059,-0.0017 -0.0746,-35.772393 -42.411,58.621591 -1.75581,-1.26688 z"
       id="path6"
       sodipodi:nodetypes="cccccccc"
       inkscape:transform-center-x="-101.37187"
       inkscape:transform-center-y="-141.85637" />
    <path
       style="opacity:1;fill:#000000;stroke:none;stroke-width:1px;stroke-linecap:butt;stroke-linejoin:miter;stroke-opacity:1"
       d="m 394.16367,245.24915 23.65409,32.65682 -38.37569,12.46271 -0.66914,-2.06488 33.99852,-11.12523 -68.85817,-22.22019 0.6623,-2.06136 z"
       id="path7"
       sodipodi:nodetypes="cccccccc"
       inkscape:transform-center-x="-166.51034"
       inkscape:transform-center-y="54.786026" />
    <path
       style="opacity:1;fill:#000000;stroke:none;stroke-width:1px;stroke-linecap:butt;stroke-linejoin:miter;stroke-opacity:1"
       d="m 239.27006,393.98939 -23.74896,32.58789 -23.71148,-32.64626 1.75704,-1.27448 21.08684,28.89663 -0.14569,-72.35443 2.16513,-0.007 z"
       id="path8"
       sodipodi:nodetypes="cccccccc"
       inkscape:transform-center-x="-1.18466"
       inkscape:transform-center-y="174.86162" />
    <path
       style="opacity:1;fill:#000000;stroke:none;stroke-width:1px;stroke-linecap:butt;stroke-linejoin:miter;stroke-opacity:1"
       d="m 49.944932,292.64007 -38.331757,-12.51639 23.721188,-32.63921 1.755058,1.27721 -20.966137,28.98433 68.768132,-22.49731 0.675719,2.057 z"
       id="path9"
       sodipodi:nodetypes="cccccccc"
       inkscape:transform-center-x="165.76503"
       inkscape:transform-center-y="57.03938" />
  </g>
  <path
     id="path5635"
     style="display:inline;fill:#ffffff;fill-opacity:1;stroke:#000000;stroke-width:7.08661;stroke-linecap:butt;stroke-linejoin:miter;stroke-miterlimit:4;stroke-dasharray:none;stroke-opacity:1"
     d="M 557.75872,466.3071 C 591.75059,361.69088 709.19233,210.58681 840.10516,389.9236 710,210 890,145 1000,145 c 110,0 290,65 159.8949,244.92358 130.9128,-179.33673 248.3545,-28.23266 282.3464,76.38353 33.9919,104.61616 27.7963,295.89248 -183.5262,227.75459 211.0135,69.08737 103.5965,227.47482 14.6046,292.1312 -88.9918,64.6564 -272.8209,117.8716 -273.3201,-104.16353 C 999.50085,1104.0645 815.67174,1050.8493 726.67987,986.19291 637.688,921.53653 530.27098,763.14907 741.28468,694.06168 529.96247,762.1996 523.76686,570.92332 557.75872,466.3071 Z"
     inkscape:connector-curvature="0"
     sodipodi:nodetypes="scscscscscs"
     transform="matrix(0.4417424,0,0,0.4417424,-229.18723,-56.82026)" />
  <g
     id="g3940"
     transform="matrix(0.43398769,0,0,0.43398769,-19.34526,-22.086655)">
    <g
       style="display:inline;fill:#000000;stroke:none"
       id="g6179">
      <path
         sodipodi:nodetypes="zzzczzscz"
         inkscape:connector-curvature="0"
         id="path5672"
         d="m 639.3479,175.86614 c -30,0 -63.0005,20 -105,20 -41.99953,0 -75,-20 -105,-20 -30,0 -45,20 -5,80 -95,-70 -35,-117 5,-117 40,0 63.00047,17 105,17 41.9995,0 65,-17 105,-17 40,0 100,47 5,117 40,-60 25,-80 -5,-80 z"
         style="fill:#000000;fill-opacity:1;stroke:none" />
      <path
         style="fill:#000000;fill-opacity:1;stroke:none"
         d="m 1105,245 c -30,0 -63.0005,20 -105,20 -41.99953,0 -75,-20 -105,-20 -30,0 -45,20 -5,80 -95,-70 -35,-117 5,-117 40,0 63.00047,17 105,17 41.9995,0 65,-17 105,-17 40,0 100,47 5,117 40,-60 25,-80 -5,-80 z"
         id="path5766"
         inkscape:connector-curvature="0"
         sodipodi:nodetypes="zzzczzscz"
         transform="rotate(-72,719.59666,895.89065)" />
      <path
         sodipodi:nodetypes="zzzczzscz"
         inkscape:connector-curvature="0"
         id="path5772"
         d="m 1105,245 c -30,0 -63.0005,20 -105,20 -41.99953,0 -75,-20 -105,-20 -30,0 -45,20 -5,80 -95,-70 -35,-117 5,-117 40,0 63.00047,17 105,17 41.9995,0 65,-17 105,-17 40,0 100,47 5,117 40,-60 25,-80 -5,-80 z"
         style="fill:#000000;fill-opacity:1;stroke:none"
         transform="rotate(-144,755.94247,651.08281)" />
      <path
         style="fill:#000000;fill-opacity:1;stroke:none"
         d="m 1105,245 c -30,0 -63.0005,20 -105,20 -41.99953,0 -75,-20 -105,-20 -30,0 -45,20 -5,80 -95,-70 -35,-117 5,-117 40,0 63.00047,17 105,17 41.9995,0 65,-17 105,-17 40,0 100,47 5,117 40,-60 25,-80 -5,-80 z"
         id="path5778"
         inkscape:connector-curvature="0"
         sodipodi:nodetypes="zzzczzscz"
         transform="rotate(144,778.40543,499.78329)" />
      <path
         sodipodi:nodetypes="zzzczzscz"
         inkscape:connector-curvature="0"
         id="path5784"
         d="m 1105,245 c -30,0 -63.0005,20 -105,20 -41.99953,0 -75,-20 -105,-20 -30,0 -45,20 -5,80 -95,-70 -35,-117 5,-117 40,0 63.00047,17 105,17 41.9995,0 65,-17 105,-17 40,0 100,47 5,117 40,-60 25,-80 -5,-80 z"
         style="fill:#000000;fill-opacity:1;stroke:none"
         transform="rotate(72,814.75127,254.9755)" />
    </g>
    <path
       style="fill:#000000;stroke:none;stroke-width:1.93474293;stroke-miterlimit:4;stroke-dasharray:none"
       inkscape:connector-curvature="0"
       d="M 57,98.501 43.999,85.5 46.217,83.282 30.717,67.781 28.499,70 15.498,57 34.987,37.51 l 13.002,13 -4.234,4.235 2.66,2.661 10.992,-10.993 -2.66,-2.66 -4.089,4.089 L 37.656,34.841 57,15.497 70.001,28.498 67.784,30.716 83.282,46.216 85.501,43.998 98.503,57 79.159,76.343 66.157,63.342 70.246,59.253 68.083,57.09 57.091,68.083 59.253,70.245 63.487,66.011 76.49,79.014 57,98.501 z"
       id="path5390"
       transform="matrix(6.8919699,0,0,6.8919699,141.50427,148.02649)" />
  </g>
</svg>
