<?xml version="1.0" encoding="UTF-8" standalone="no"?>
<!-- Created with Inkscape (http://www.inkscape.org/) -->

<svg
   id="svg2985"
   version="1.1"
   inkscape:version="1.4.3 (1:1.4.3+202512261034+0d15f75042)"
   width="425.19684"
   height="425.19684"
   sodipodi:docname="logo-bw.svg"
   inkscape:export-filename="/home/tails/Pictures/Designs/Hackspace/Logo/png/logo-bw.png"
   inkscape:export-xdpi="96.096672"
   inkscape:export-ydpi="96.096672"
   xmlns:inkscape="http://www.inkscape.org/namespaces/inkscape"
   xmlns:sodipodi="http://sodipodi.sourceforge.net/DTD/sodipodi-0.dtd"
   xmlns="http://www.w3.org/2000/svg"
   xmlns:svg="http://www.w3.org/2000/svg"
   xmlns:rdf="http://www.w3.org/1999/02/22-rdf-syntax-ns#"
   xmlns:cc="http://creativecommons.org/ns#"
   xmlns:dc="http://purl.org/dc/elements/1.1/">
  <metadata
     id="metadata2991">
    <rdf:RDF>
      <cc:Work
         rdf:about="">
        <dc:format>image/svg+xml</dc:format>
        <dc:type
           rdf:resource="http://purl.org/dc/dcmitype/StillImage" />
        <dc:title />
      </cc:Work>
    </rdf:RDF>
  </metadata>
  <defs
     id="defs2989">
    <linearGradient
       id="linearGradient6445"
       inkscape:swatch="solid">
      <stop
         style="stop-color:#000000;stop-opacity:1;"
         offset="0"
         id="stop6447" />
    </linearGradient>
    <linearGradient
       id="linearGradient5439"
       inkscape:swatch="solid">
      <stop
         style="stop-color:#93b76b;stop-opacity:1;"
         offset="0"
         id="stop5441" />
    </linearGradient>
  </defs>
  <sodipodi:namedview
     pagecolor="#ffffff"
     bordercolor="#666666"
     borderopacity="1"
     objecttolerance="10"
     gridtolerance="10"
     guidetolerance="10"
     inkscape:pageopacity="0"
     inkscape:pageshadow="2"
     inkscape:window-width="1920"
     inkscape:window-height="1029"
     id="namedview2987"
     showgrid="false"
     showguides="true"
     inkscape:guide-bbox="true"
     inkscape:zoom="1.2553805"
     inkscape:cx="106.34226"
     inkscape:cy="249.72508"
     inkscape:window-x="0"
     inkscape:window-y="25"
     inkscape:window-maximized="1"
     inkscape:current-layer="svg2985"
     units="mm"
     fit-margin-top="20"
     fit-margin-left="20"
     fit-margin-right="20"
     fit-margin-bottom="20"
     inkscape:showpageshadow="0"
     inkscape:pagecheckerboard="0"
     inkscape:deskcolor="#d1d1d1">
    <inkscape:grid
       type="xygrid"
       id="grid2995"
       empspacing="5"
       visible="true"
       enabled="true"
       snapvisiblegridlinesonly="true"
       originx="-465.6521px"
       originy="-31.980163px"
       spacingy="1"
       spacingx="1"
       units="mm" />
  </sodipodi:namedview>
  <g
     id="g9"
     style="fill:#000000;stroke:#008000">
    <path
       style="display:inline;opacity:1;fill:#000000;stroke:none;stroke-width:1px;stroke-linecap:butt;stroke-linejoin:miter;stroke-opacity:1"
       d="m 87.829178,78.703864 0.05863,-37.764796 35.839232,11.650405 -0.57484,2.101513 -31.609225,-10.197649 42.646725,58.450323 -1.74745,1.27839 C 117.37547,87.893362 100.61914,79.285156 87.829178,78.703864 Z"
       id="path5"
       sodipodi:nodetypes="cccccccc"
       inkscape:transform-center-x="101.54017"
       inkscape:transform-center-y="-140.04236" />
    <path
       style="display:inline;opacity:1;fill:#000000;stroke:none;stroke-width:1px;stroke-linecap:butt;stroke-linejoin:miter;stroke-opacity:1"
       d="m 301.37347,52.623477 35.93457,-11.614204 -0.005,37.685308 -2.1763,0.102698 -0.0692,-33.213406 -42.411,58.621587 -1.75581,-1.26688 c 10.87361,-19.375199 13.88251,-37.971498 10.48304,-50.315103 z"
       id="path4"
       sodipodi:nodetypes="cccccccc"
       inkscape:transform-center-x="-101.54978"
       inkscape:transform-center-y="-140.01555" />
    <path
       style="display:inline;opacity:1;fill:#000000;stroke:none;stroke-width:1px;stroke-linecap:butt;stroke-linejoin:miter;stroke-opacity:1"
       d="m 392.1662,247.65689 22.15016,30.58682 -35.84241,11.64064 -0.77018,-2.03805 31.56644,-10.32932 -68.85816,-22.22019 0.6623,-2.06136 c 21.78704,4.35415 40.40297,1.46921 51.09194,-5.57826 z"
       id="path6"
       sodipodi:nodetypes="cccccccc"
       inkscape:transform-center-x="-164.8146"
       inkscape:transform-center-y="56.147704" />
    <path
       style="display:inline;opacity:1;fill:#000000;stroke:none;stroke-width:1px;stroke-linecap:butt;stroke-linejoin:miter;stroke-opacity:1"
       d="m 234.7349,394.27454 -22.24502,30.5179 -22.14682,-30.491 1.7003,-1.36228 19.57833,26.82954 -0.14568,-72.35442 2.16513,-0.007 c 2.59152,22.06621 11.0879,38.87952 21.09352,46.86754 z"
       id="path7"
       sodipodi:nodetypes="cccccccc"
       inkscape:transform-center-x="0.010625"
       inkscape:transform-center-y="173.47694" />
    <path
       style="display:inline;opacity:1;fill:#000000;stroke:none;stroke-width:1px;stroke-linecap:butt;stroke-linejoin:miter;stroke-opacity:1"
       d="m 46.644281,289.85583 -35.898337,-11.72572 22.154921,-30.48512 1.821027,1.19611 -19.466372,26.91089 68.768125,-22.4973 0.675719,2.057 c -20.185389,9.28352 -33.550271,22.55965 -38.055423,34.544 z"
       id="path8"
       sodipodi:nodetypes="cccccccc"
       inkscape:transform-center-x="164.82695"
       inkscape:transform-center-y="56.12749" />
  </g>
  <g
     id="g3940"
     transform="matrix(0.43398769,0,0,0.43398769,-19.34526,-22.086655)">
    <g
       style="display:inline;fill:#000000;stroke:none"
       id="g6179">
      <path
         sodipodi:nodetypes="zzzczzscz"
         inkscape:connector-curvature="0"
         id="path5672"
         d="m 639.3479,175.86614 c -30,0 -63.0005,20 -105,20 -41.99953,0 -75,-20 -105,-20 -30,0 -45,20 -5,80 -95,-70 -35,-117 5,-117 40,0 63.00047,17 105,17 41.9995,0 65,-17 105,-17 40,0 100,47 5,117 40,-60 25,-80 -5,-80 z"
         style="fill:#000000;fill-opacity:1;stroke:none" />
      <path
         style="fill:#000000;fill-opacity:1;stroke:none"
         d="m 1105,245 c -30,0 -63.0005,20 -105,20 -41.99953,0 -75,-20 -105,-20 -30,0 -45,20 -5,80 -95,-70 -35,-117 5,-117 40,0 63.00047,17 105,17 41.9995,0 65,-17 105,-17 40,0 100,47 5,117 40,-60 25,-80 -5,-80 z"
         id="path5766"
         inkscape:connector-curvature="0"
         sodipodi:nodetypes="zzzczzscz"
         transform="rotate(-72,719.59666,895.89065)" />
      <path
         sodipodi:nodetypes="zzzczzscz"
         inkscape:connector-curvature="0"
         id="path5772"
         d="m 1105,245 c -30,0 -63.0005,20 -105,20 -41.99953,0 -75,-20 -105,-20 -30,0 -45,20 -5,80 -95,-70 -35,-117 5,-117 40,0 63.00047,17 105,17 41.9995,0 65,-17 105,-17 40,0 100,47 5,117 40,-60 25,-80 -5,-80 z"
         style="fill:#000000;fill-opacity:1;stroke:none"
         transform="rotate(-144,755.94247,651.08281)" />
      <path
         style="fill:#000000;fill-opacity:1;stroke:none"
         d="m 1105,245 c -30,0 -63.0005,20 -105,20 -41.99953,0 -75,-20 -105,-20 -30,0 -45,20 -5,80 -95,-70 -35,-117 5,-117 40,0 63.00047,17 105,17 41.9995,0 65,-17 105,-17 40,0 100,47 5,117 40,-60 25,-80 -5,-80 z"
         id="path5778"
         inkscape:connector-curvature="0"
         sodipodi:nodetypes="zzzczzscz"
         transform="rotate(144,778.40543,499.78329)" />
      <path
         sodipodi:nodetypes="zzzczzscz"
         inkscape:connector-curvature="0"
         id="path5784"
         d="m 1105,245 c -30,0 -63.0005,20 -105,20 -41.99953,0 -75,-20 -105,-20 -30,0 -45,20 -5,80 -95,-70 -35,-117 5,-117 40,0 63.00047,17 105,17 41.9995,0 65,-17 105,-17 40,0 100,47 5,117 40,-60 25,-80 -5,-80 z"
         style="fill:#000000;fill-opacity:1;stroke:none"
         transform="rotate(72,814.75127,254.9755)" />
    </g>
    <path
       style="fill:#000000;stroke:none;stroke-width:1.93474293;stroke-miterlimit:4;stroke-dasharray:none"
       inkscape:connector-curvature="0"
       d="M 57,98.501 43.999,85.5 46.217,83.282 30.717,67.781 28.499,70 15.498,57 34.987,37.51 l 13.002,13 -4.234,4.235 2.66,2.661 10.992,-10.993 -2.66,-2.66 -4.089,4.089 L 37.656,34.841 57,15.497 70.001,28.498 67.784,30.716 83.282,46.216 85.501,43.998 98.503,57 79.159,76.343 66.157,63.342 70.246,59.253 68.083,57.09 57.091,68.083 59.253,70.245 63.487,66.011 76.49,79.014 57,98.501 z"
       id="path5390"
       transform="matrix(6.8919699,0,0,6.8919699,141.50427,148.02649)" />
  </g>
  <path
     id="path2"
     style="display:inline;fill:#000000;fill-opacity:1;stroke:none;stroke-width:7.08661;stroke-linecap:butt;stroke-linejoin:miter;stroke-miterlimit:4;stroke-dasharray:none;stroke-opacity:1"
     d="M 212.55469 5.6660156 C 187.9505 5.6660156 155.67266 12.80327 136.41016 30.367188 C 126.7789 39.149146 120.44831 50.657047 120.3125 64.974609 C 120.2194 74.789725 123.09313 85.902675 129.52148 98.357422 C 119.6628 88.394893 109.98255 82.22966 100.61914 79.285156 C 86.960552 74.989949 74.058571 77.452345 62.730469 83.898438 C 40.074265 96.790622 23.314043 125.28364 15.710938 148.68359 C 8.1078321 172.08355 4.9202685 204.98757 15.671875 228.73438 C 21.047678 240.60778 30.036575 250.18298 43.611328 254.73633 C 52.916859 257.85766 64.37225 258.55965 78.203125 256.29492 C 65.682366 262.5924 56.826488 269.89361 51.132812 277.88867 C 42.82705 289.55163 41.184495 302.58379 43.814453 315.34961 C 49.074369 340.88125 70.993234 365.62592 90.898438 380.08789 C 110.80364 394.54987 141.11232 407.75066 167.01953 404.86328 C 179.97314 403.41959 191.85742 397.82953 200.38281 386.32617 C 206.22784 378.43945 210.4349 367.75909 212.55469 353.90234 C 214.67455 367.75909 218.8814 378.43945 224.72656 386.32617 C 233.25216 397.82952 245.13796 403.41959 258.0918 404.86328 C 283.99947 407.75066 314.30769 394.54988 334.21289 380.08789 C 354.11811 365.6259 376.03747 340.88126 381.29688 315.34961 C 383.92658 302.58378 382.2825 289.55161 373.97656 277.88867 C 368.28276 269.89362 359.42704 262.59239 346.90625 256.29492 C 360.73719 258.55964 372.19239 257.85766 381.49805 254.73633 C 395.07298 250.18298 404.06341 240.60777 409.43945 228.73438 C 420.19155 204.98758 417.00351 172.08356 409.40039 148.68359 C 401.79727 125.28363 385.03559 96.790611 362.37891 83.898438 C 351.05056 77.452351 338.15095 74.989954 324.49219 79.285156 C 315.12866 82.229657 305.44662 88.394895 295.58789 98.357422 C 302.01625 85.902676 304.88998 74.789724 304.79688 64.974609 C 304.66106 50.657047 298.33047 39.149147 288.69922 30.367188 C 269.43672 12.803269 237.15887 5.6660156 212.55469 5.6660156 z M 212.55469 8.8066406 C 236.54032 8.8066406 268.31271 16.027396 286.58398 32.6875 C 295.71962 41.017552 301.52897 51.588606 301.65625 65.005859 C 301.78353 78.423113 296.15293 94.810144 281.91211 114.50391 A 1.5749836 1.5749836 0 0 0 284.45898 116.35352 C 298.78821 96.723988 312.63371 86.306363 325.43359 82.28125 C 338.23348 78.256137 350.08077 80.512574 360.82617 86.626953 C 382.31698 98.855712 399.00209 126.84261 406.41406 149.6543 C 413.82604 172.46598 416.77691 204.91467 406.57812 227.43945 C 401.47873 238.70184 393.22135 247.49273 380.5 251.75977 C 367.77865 256.0268 350.45284 255.73546 327.32227 248.27734 A 1.5749836 1.5749836 0 0 0 326.34961 251.27148 C 349.44636 258.83353 363.6343 268.78136 371.41797 279.71094 C 379.20163 290.64051 380.71508 302.60594 378.2207 314.71484 C 373.23195 338.93265 351.77198 363.45043 332.36719 377.54883 C 312.96242 391.64723 283.01397 404.48099 258.43945 401.74219 C 246.1522 400.37279 235.2395 395.23509 227.25 384.45508 C 219.2605 373.67507 214.18355 357.10782 214.12891 332.80469 A 1.5749836 1.5749836 0 0 0 210.98047 332.80469 C 210.92588 357.10782 205.84868 373.67507 197.85938 384.45508 C 189.87007 395.23509 178.95889 400.37279 166.67188 401.74219 C 142.09784 404.48099 112.14893 391.64724 92.744141 377.54883 C 73.33935 363.45042 51.877919 338.93266 46.888672 314.71484 C 44.394048 302.60594 45.907924 290.64051 53.691406 279.71094 C 61.474889 268.78137 75.662995 258.83353 98.759766 251.27148 A 1.5749836 1.5749836 0 0 0 97.787109 248.27734 C 74.656565 255.73547 57.330522 256.02679 44.609375 251.75977 C 31.888228 247.49274 23.63041 238.70184 18.53125 227.43945 C 8.3329293 204.91468 11.285293 172.46601 18.697266 149.6543 C 26.109242 126.84258 42.792895 98.855702 64.283203 86.626953 C 75.028357 80.512579 86.876082 78.256137 99.675781 82.28125 C 112.47548 86.306363 126.32116 96.723977 140.65039 116.35352 A 1.5749836 1.5749836 0 0 0 143.19727 114.50391 C 128.95644 94.810142 123.32585 78.423113 123.45312 65.005859 C 123.5804 51.588606 129.38975 41.017551 138.52539 32.6875 C 156.79667 16.027397 188.56905 8.8066406 212.55469 8.8066406 z " />
</svg>
