<?xml version="1.0" encoding="UTF-8" standalone="no"?>
<!-- Created with Inkscape (http://www.inkscape.org/) -->

<svg
   version="1.1"
   width="425.19684"
   height="425.19684"
   id="svg2985"
   sodipodi:docname="logo-cutter.svg"
   inkscape:version="1.1.2 (0a00cf5339, 2022-02-04)"
   xmlns:inkscape="http://www.inkscape.org/namespaces/inkscape"
   xmlns:sodipodi="http://sodipodi.sourceforge.net/DTD/sodipodi-0.dtd"
   xmlns="http://www.w3.org/2000/svg"
   xmlns:svg="http://www.w3.org/2000/svg"
   xmlns:rdf="http://www.w3.org/1999/02/22-rdf-syntax-ns#"
   xmlns:cc="http://creativecommons.org/ns#"
   xmlns:dc="http://purl.org/dc/elements/1.1/">
  <sodipodi:namedview
     id="namedview952"
     pagecolor="#505050"
     bordercolor="#eeeeee"
     borderopacity="1"
     inkscape:pageshadow="0"
     inkscape:pageopacity="0"
     inkscape:pagecheckerboard="0"
     showgrid="false"
     inkscape:zoom="5.4546742"
     inkscape:cx="237.50273"
     inkscape:cy="163.7128"
     inkscape:window-width="1920"
     inkscape:window-height="1029"
     inkscape:window-x="0"
     inkscape:window-y="25"
     inkscape:window-maximized="1"
     inkscape:current-layer="layer1"
     inkscape:snap-global="false" />
  <metadata
     id="metadata2991">
    <rdf:RDF>
      <cc:Work
         rdf:about="">
        <dc:format>image/svg+xml</dc:format>
        <dc:type
           rdf:resource="http://purl.org/dc/dcmitype/StillImage" />
      </cc:Work>
    </rdf:RDF>
  </metadata>
  <defs
     id="defs2989">
    <inkscape:path-effect
       effect="spiro"
       id="path-effect3039" />
    <linearGradient
       id="linearGradient6445">
      <stop
         id="stop6447"
         style="stop-color:#000000;stop-opacity:1"
         offset="0" />
    </linearGradient>
    <linearGradient
       id="linearGradient5439">
      <stop
         id="stop5441"
         style="stop-color:#93b76b;stop-opacity:1"
         offset="0" />
    </linearGradient>
  </defs>
  <g
     transform="matrix(0.23869323,0,0,0.23869323,85.010341,83.540674)"
     id="g3940"
     style="fill:none">
    <path
       d="m 977.1684,534.87115 a 468.01224,468.01224 0 1 1 0,-5e-5"
       transform="matrix(1.0464992,0,0,1.0464992,1.5185152,-18.880323)"
       id="path3170"
       style="fill:none;stroke:none" />
  </g>
  <g
     inkscape:groupmode="layer"
     id="layer1"
     inkscape:label="Outline"
     style="display:inline;opacity:0.301367">
    <path
       id="path16363"
       style="vector-effect:non-scaling-stroke;fill:#ff0000;stroke:#00ff00;stroke-width:0.0119347;stroke-linecap:square;stroke-linejoin:miter;stroke-miterlimit:4;stroke-dasharray:none;stroke-opacity:1;-inkscape-stroke:hairline"
       d="m 212.55469,97.746094 c -9.31305,0 -20.52046,1.83607 -30.20899,6.070316 -9.04439,3.95272 -16.81456,10.12649 -20.02734,18.96484 l -17.13672,-5.57813 a 1.9200715,1.9200715 0 0 0 -2.51367,1.82618 l 0.01,18.08398 c -9.41247,0.29256 -17.69972,5.76561 -24.26367,13.14649 -7.03203,7.90721 -12.24999,18.01052 -15.13086,26.87695 -2.87834,8.85862 -4.595892,20.0874 -3.566403,30.61523 0.961173,9.82919 4.426443,19.13475 11.830083,24.93555 l -10.57813,14.53711 a 1.9200715,1.9200715 0 0 0 0.95898,2.95508 l 17.13477,5.5625 c -2.59582,9.05518 0.0674,18.63117 5.06836,27.1582 5.35578,9.13209 13.34952,17.21443 20.89062,22.69336 7.53401,5.47378 17.681,10.5756 28.00782,12.8457 9.6406,2.11926 19.55486,1.69435 27.35156,-3.56445 l 10.58203,14.57812 a 1.9200715,1.9200715 0 0 0 3.10742,0.002 l 10.63281,-14.60938 c 7.80267,5.27554 17.72502,5.70807 27.3711,3.5918 10.33113,-2.26657 20.48009,-7.36886 28.01562,-12.84375 7.53026,-5.47106 15.51327,-13.53854 20.86133,-22.6543 4.99332,-8.51109 7.65218,-18.06951 5.0625,-27.11133 l 17.14649,-5.57617 a 1.9200715,1.9200715 0 0 0 0.96093,-2.95312 L 313.52148,232.6875 c 7.42346,-5.79771 10.89848,-15.1032 11.86524,-24.93359 1.03537,-10.52804 -0.68014,-21.75825 -3.5586,-30.61719 -2.87587,-8.85104 -8.08133,-18.93419 -15.09765,-26.83594 -6.55084,-7.37751 -14.8194,-12.85935 -24.21875,-13.18945 l -0.01,-18.03711 a 1.9200715,1.9200715 0 0 0 -2.51367,-1.82617 l -17.17969,5.58007 c -3.20323,-8.85602 -10.97618,-15.0423 -20.02539,-19.00195 -9.69351,-4.24157 -20.90921,-6.080076 -30.22851,-6.080076 z m 0,2.488286 c 8.98681,-1e-5 19.94776,1.81037 29.23242,5.87304 9.28465,4.06267 16.85503,10.3462 19.29492,19.27344 a 0.56908224,0.56908224 0 0 0 0.72461,0.39062 l 18.20703,-5.91406 0.01,19.11133 a 0.56908224,0.56908224 0 0 0 0.59375,0.56836 c 9.23033,-0.41443 17.53144,4.84741 24.25195,12.41601 6.72051,7.56861 11.81853,17.41791 14.5918,25.95313 2.77575,8.54287 4.44097,19.51904 3.44922,29.60352 -0.99175,10.08447 -4.62091,19.23179 -12.34571,24.32812 a 0.56908224,0.56908224 0 0 0 -0.14843,0.80859 l 11.23046,15.48047 -18.16796,5.90821 a 0.56908224,0.56908224 0 0 0 -0.35743,0.74023 c 3.24539,8.65071 0.80626,18.17274 -4.3164,26.9043 -5.12267,8.73156 -12.91613,16.62452 -20.17774,21.90039 -7.26668,5.27956 -17.19052,10.25675 -27.08593,12.42773 -9.89542,2.17098 -19.71314,1.53932 -26.94141,-4.24023 a 0.56908224,0.56908224 0 0 0 -0.81641,0.11133 l -11.26562,15.47851 -11.21289,-15.44922 a 0.56908224,0.56908224 0 0 0 -0.81641,-0.11132 c -7.22122,5.7632 -17.03401,6.3854 -26.92578,4.21093 -9.89177,-2.17447 -19.81291,-7.14924 -27.07812,-12.42773 -7.27208,-5.28348 -15.07657,-13.19154 -20.20704,-21.93946 -5.13046,-8.7479 -7.57413,-18.28767 -4.32226,-26.95117 a 0.56908224,0.56908224 0 0 0 -0.35742,-0.74023 l -18.1543,-5.89453 11.20898,-15.4043 a 0.56908224,0.56908224 0 0 0 -0.14648,-0.80859 c -7.70427,-5.09828 -11.32435,-14.2469 -12.31055,-24.33203 -0.9862,-10.08514 0.67941,-21.06089 3.45508,-29.60352 2.77811,-8.55014 7.88799,-18.41891 14.62305,-25.99219 6.73506,-7.57328 15.05323,-12.82475 24.29687,-12.36718 a 0.56908224,0.56908224 0 0 0 0.59571,-0.56836 l -0.01,-19.16602 18.16016,5.91211 a 0.56908224,0.56908224 0 0 0 0.72461,-0.39063 c 2.45015,-8.90839 10.02053,-15.18052 19.30078,-19.23632 9.28024,-4.05581 20.23215,-5.86328 29.21289,-5.86328 z" />
  </g>
  <g
     inkscape:groupmode="layer"
     id="layer2"
     inkscape:label="Impression"
     style="display:inline;opacity:0.370585">
    <g
       transform="matrix(1.0140502,0,0,1.0140502,-593.39939,-302.23675)"
       id="g5422"
       style="fill:none;stroke:#0000ff;stroke-width:1.93474;stroke-miterlimit:4;stroke-dasharray:none">
      <g
         transform="matrix(1.6222733,0,0,1.6222733,702.31813,415.27565)"
         id="g5388"
         style="fill:none;stroke:#0000ff">
        <path
           id="path11186"
           style="vector-effect:non-scaling-stroke;fill:#0000ff;stroke:#00ff00;stroke-width:0.0193475;stroke-miterlimit:4;stroke-dasharray:none;-inkscape-stroke:hairline"
           d="m 212.15039,142.85156 a 1.5689625,1.5689625 0 0 0 -0.70312,0.40625 L 179.625,175.08203 a 1.5689625,1.5689625 0 0 0 0,2.2168 l 21.38867,21.38672 a 1.5689625,1.5689625 0 0 0 2.2168,0 l 5.61719,-5.61719 2.1582,2.15625 -15.86133,15.86523 -2.16015,-2.1582 5.85351,-5.85742 a 1.5689625,1.5689625 0 0 0 0,-2.2168 L 177.44922,179.4707 a 1.5689625,1.5689625 0 0 0 -2.2168,0 l -32.05859,32.0625 a 1.5689625,1.5689625 0 0 0 0,2.2168 l 21.38476,21.38672 a 1.5689625,1.5689625 0 0 0 2.2168,0 l 2.54297,-2.54102 23.28125,23.28125 -2.54102,2.54102 a 1.5689625,1.5689625 0 0 0 0,2.2168 l 21.38868,21.38867 a 1.5689625,1.5689625 0 0 0 2.21679,0 l 32.0625,-32.0586 a 1.5689625,1.5689625 0 0 0 0,-2.21679 l -21.39258,-21.38867 a 1.5689625,1.5689625 0 0 0 -2.21679,0 l -5.85352,5.85351 -1.33984,-1.33984 15.86133,-15.86524 1.34375,1.3418 -5.61914,5.61719 a 1.5689625,1.5689625 0 0 0 0,2.21679 l 21.38867,21.38868 a 1.5689625,1.5689625 0 0 0 2.21679,0 L 281.93945,213.75 a 1.5689625,1.5689625 0 0 0 0,-2.2168 l -21.38867,-21.38867 a 1.5689625,1.5689625 0 0 0 -2.2168,0 l -2.54492,2.54102 -23.27734,-23.28125 2.54101,-2.54102 a 1.5689625,1.5689625 0 0 0 0,-2.2168 l -21.38867,-21.38867 a 1.5689625,1.5689625 0 0 0 -1.51367,-0.40625 z m 0.4043,3.71094 19.1914,19.19141 -2.55078,2.55273 a 1.5526609,1.5526609 0 0 0 0,2.19727 l 25.4961,25.49804 a 1.5526609,1.5526609 0 0 0 2.19726,0 l 2.55469,-2.55468 19.19141,19.19531 -29.62696,29.62695 -19.1914,-19.19531 5.6289,-5.625 a 1.5526609,1.5526609 0 0 0 0,-2.19727 l -3.56054,-3.56054 a 1.5526609,1.5526609 0 0 0 -2.19727,0 l -18.08008,18.08203 a 1.5526609,1.5526609 0 0 0 0,2.19922 l 3.55664,3.55664 a 1.5526609,1.5526609 0 0 0 2.19727,0 l 5.86523,-5.86719 19.19336,19.19336 -29.86523,29.86523 -19.19141,-19.19336 2.55078,-2.55078 a 1.5526609,1.5526609 0 0 0 0,-2.19922 L 170.41602,229.2793 a 1.5526609,1.5526609 0 0 0 -2.19727,0 l -2.55078,2.55078 -19.19141,-19.1875 29.86524,-29.86914 19.19336,19.1914 -5.86719,5.86719 a 1.5526609,1.5526609 0 0 0 0,2.19531 l 4.37305,4.37891 a 1.5526609,1.5526609 0 0 0 2.19921,0.004 l 18.08204,-18.08594 a 1.5526609,1.5526609 0 0 0 0,-2.19922 l -4.37696,-4.37305 a 1.5526609,1.5526609 0 0 0 -2.19726,0 l -5.625,5.63086 -19.19141,-19.1914 z"
           transform="matrix(0.60787814,0,0,0.60787814,-72.207686,-72.260666)" />
      </g>
    </g>
    <g
       id="g6179"
       style="fill:#0000ff;stroke:#00ff00;stroke-width:8.16453;stroke-miterlimit:4;stroke-dasharray:none"
       transform="matrix(0.23869323,0,0,0.23869323,85.010341,83.540674)">
      <path
         id="path11914"
         style="vector-effect:non-scaling-stroke;fill:#0000ff;stroke:#00ff00;stroke-width:0.342051;-inkscape-stroke:hairline"
         d="m 396.98828,211.64062 c -5.00835,-10.61437 -7.45431,-21.27468 -4.93555,-29.46874 2.51877,-8.19407 9.7135,-15.11561 27.32227,-18.8086 11.21854,-2.35281 25.24519,1.83153 43.88281,7.10156 18.63762,5.27004 41.77066,11.32422 71.33008,11.32422 51.82204,0 79.65142,-19.87496 104.46094,-19.74414 3.5434,0.0187 7.04461,0.41362 10.62109,1.28906 17.46111,4.27413 24.66893,11.49396 27.17969,19.83985 2.51076,8.34589 0.0692,18.9147 -4.89453,29.36914 -9.05002,19.06085 -25.0907,36.12882 -27.10352,43.18359 1.95645,4.05462 2.99522,3.62309 3.75977,2.85547 0,0 19.8582,-19.78926 30.66992,-42.56055 5.40586,-11.38564 8.76607,-23.78167 5.33594,-35.18359 -3.43013,-11.40191 -13.90716,-20.70254 -33.01953,-25.38086 -4.22151,-1.03333 -8.38407,-1.49975 -12.50586,-1.52148 -28.84674,-0.15211 -54.79952,19.74414 -104.50391,19.74414 -28.45619,0 -50.61081,-5.783 -69.12305,-11.01758 -18.51224,-5.23458 -33.49861,-10.22602 -47.7539,-7.23633 -19.28056,4.04361 -29.92861,13.03709 -33.41016,24.36328 -3.48154,11.32619 -0.0866,23.78102 5.35352,35.31055 10.88028,23.05905 30.87695,43.44922 30.87695,43.44922 0.76711,0.78801 1.82018,1.23248 3.80566,-2.82227 -2.02039,-7.14075 -18.21506,-24.72876 -27.34863,-44.08594 z m 396.03125,109.85743 c 10.94197,-13.74848 25.61158,-26.76591 38.46875,-26.97071 8.57132,-0.13653 17.37633,4.56793 26.33008,20.17383 5.70438,9.94243 6.0595,24.57611 6.80664,43.92969 0.74714,19.35358 2.13712,43.22326 11.27148,71.33594 9.15079,28.16323 22.23157,46.83327 33.0254,62.11718 10.79382,15.28392 18.99968,26.94382 20.08984,41.62891 1.33084,17.9273 -3.30929,27.01537 -10.4707,31.98242 -7.16141,4.96705 -17.96697,5.90989 -29.44336,4.41992 -20.92317,-2.71641 -42.11097,-12.69745 -49.44434,-12.43164 -3.25194,3.11451 -2.52028,3.96917 -1.55371,4.45899 0,0 24.95773,12.77026 49.95508,16.01562 12.49867,1.62268 25.32373,0.98701 35.10742,-5.79882 9.78369,-6.78584 15.39224,-19.62349 13.93555,-39.2461 -1.28722,-17.33962 -10.7727,-30.44264 -21.55274,-45.70703 -10.78003,-15.26439 -23.15868,-32.93291 -31.93554,-59.94531 -8.79345,-27.06345 -10.13875,-49.91921 -10.88086,-69.14258 -0.74212,-19.22337 -0.62848,-35.01865 -7.87696,-47.65234 -9.80363,-17.08721 -21.64435,-24.43678 -33.49218,-24.24805 -17.77156,0.28308 -33.1912,15.58675 -44.68555,30.0293 -11.49436,14.44254 -19.02539,28.76562 -19.02539,28.76562 -0.5124,0.97321 -0.60961,2.11224 3.86523,2.76074 5.20977,-2.3912 11.46588,-13.86045 21.50586,-26.47558 z m -516.51367,0.0723 c -10.67643,-13.57198 -25.0726,-26.45365 -38.14258,-26.74023 -8.71323,-0.19106 -17.80881,4.43301 -27.26953,19.71875 -7.74967,12.52118 -7.96405,26.77858 -8.21484,45.48828 -0.2508,18.7097 -0.64217,41.50078 -9.79297,69.66406 -9.13438,28.11272 -22.04058,48.24315 -32.8125,64.33985 -10.77192,16.09669 -19.08735,28.14459 -20.31641,39.54101 -1.92916,17.88813 2.43063,26.8693 9.44531,31.79688 7.01469,4.92758 17.90824,5.8953 29.55078,4.41211 21.23099,-2.70472 42.96183,-12.66932 50.37989,-12.38575 3.24289,3.14001 2.49488,4.00354 1.50879,4.48926 0,0 -25.5706,12.71926 -50.86328,15.94141 -12.64635,1.61107 -25.54228,0.9908 -35.23829,-5.82032 -9.696,-6.81111 -14.95802,-19.71824 -12.8457,-39.30468 1.56178,-14.48155 10.93924,-27.19326 21.63867,-43.18164 10.69944,-15.98839 23.04642,-35.27059 31.83985,-62.33399 8.77685,-27.01236 9.14601,-48.5818 9.39648,-67.26758 0.25047,-18.68577 0.27709,-34.86174 9.42774,-49.64648 10.35539,-16.73126 22.43978,-23.82157 34.34375,-23.56055 17.85584,0.39153 33.10061,15.54656 44.33984,29.83399 11.23923,14.28743 18.47266,28.43359 18.47266,28.43359 0.49461,0.96446 0.58458,2.08623 -3.88086,2.70801 -5.16431,-2.37688 -11.17202,-13.67475 -20.9668,-26.12598 z m 516.23242,388.87303 c 4.16669,0.78889 27.60507,5.50141 46.3711,15.79297 10.29069,5.64356 18.53587,12.82966 21.31445,20.93945 2.77857,8.10979 1.02432,17.93752 -11.05078,31.27539 -7.69295,8.49745 -21.49968,13.35814 -39.67578,20.04883 -18.1761,6.69069 -40.44916,15.38709 -64.36329,32.76172 -23.95709,17.40585 -37.67089,35.61477 -48.87109,50.60351 -11.2002,14.98875 -19.75339,26.39794 -33.38281,31.97266 -16.63862,6.80557 -26.71543,5.20181 -33.65235,-0.0742 -6.93691,-5.27601 -11.1734,-15.26157 -13.30273,-26.63672 -3.8822,-20.73922 -0.93853,-43.97579 -3.45606,-50.86719 -3.96566,-2.13053 -4.55255,-1.17042 -4.71972,-0.0996 0,0 -4.43292,27.68217 0.20508,52.45898 2.319,12.38841 6.88627,24.38972 16.36328,31.59766 9.47701,7.20793 23.42074,8.57607 41.63281,1.12695 16.09323,-6.58247 25.62271,-19.65346 36.80859,-34.62305 11.18589,-14.96958 24.16253,-32.20191 47.14063,-48.89648 23.02149,-16.72609 44.34466,-25.06918 62.39844,-31.71484 18.05378,-6.64567 33.11115,-11.41699 42.88672,-22.21485 13.22152,-14.60418 16.55156,-28.13805 12.71093,-39.34765 -3.84063,-11.20961 -13.90799,-19.29173 -25.08593,-25.42188 -22.35589,-12.26029 -50.51954,-17.00195 -50.51954,-17.00195 -1.08349,-0.18655 -2.19638,0.0727 -1.41894,4.51953 z M 460.72656,836.04103 c 0,0 4.19308,28.24843 -0.55859,53.29882 -2.37584,12.5252 -6.95171,24.5982 -16.42578,31.71485 -9.47407,7.11663 -23.37454,8.13178 -41.34961,0.0703 -13.29012,-5.96036 -22.48136,-18.80568 -34.38086,-33.92188 -11.8995,-15.11619 -26.42184,-32.81685 -49.44336,-49.54296 -22.97811,-16.69457 -43.37843,-23.71185 -61.07227,-29.72461 -17.69383,-6.01277 -33.06934,-11.03711 -44.30273,-24.3086 -12.71238,-15.0188 -15.72168,-28.70287 -11.79492,-39.94336 3.92675,-11.24049 13.93045,-19.29253 24.99609,-25.32617 22.13129,-12.06728 49.82813,-16.40625 49.82813,-16.40625 1.06996,-0.17183 2.16428,0.0896 1.36425,4.5205 -5.77569,4.52495 -28.7849,8.90415 -47.30957,19.00489 -10.16059,5.54016 -18.34838,12.65511 -21.22265,20.88282 -2.87427,8.2277 -1.28595,18.30611 10.32812,32.02734 9.5136,11.23966 23.00618,15.85063 40.72266,21.87109 17.71647,6.02046 39.27141,13.434 63.22851,30.83985 23.9141,17.3746 39.07067,35.87124 51.05079,51.08984 11.98011,15.2186 20.86729,26.84845 31.32617,31.53906 16.41647,7.36248 26.30795,5.9924 33.16211,0.84375 6.85415,-5.14864 11.14087,-15.21117 13.32812,-26.74219 3.98861,-21.02757 1.22489,-44.77342 3.78711,-51.7412 3.99,-2.11418 4.58104,-1.13498 4.73828,-0.0459 z"
         sodipodi:nodetypes="sssssssssccsssssssssccssssssssssccsssssssssccssssssssssccsssssssssccsssssssssssccsssssssssccscsssssssssccssssssssscc" />
    </g>
    <path
       id="path13809"
       style="vector-effect:non-scaling-stroke;fill:#0000ff;stroke:#00ff00;stroke-width:0.0119347;stroke-linecap:square;-inkscape-stroke:hairline"
       d="m 168.16016,151.83789 c -7.6863,-8.34085 -15.16246,-12.31452 -23.11134,-13.15235 -1.3915,0.28582 -1.17304,1.01924 -0.5996,1.04884 8.75009,0.44204 18.47578,5.99978 28.63867,19.92187 0.48208,0.62985 1.43655,-0.0638 0.98633,-0.7168 -10.12245,-13.99842 -12.39277,-24.98298 -10.08399,-33.44922 0.0925,-0.3413 -0.12377,-0.68944 -0.4707,-0.75781 -0.16661,-0.0327 -0.33932,0.005 -0.71387,1.00781 -1.67683,7.83191 -0.21616,16.18681 5.3545,26.09766 z m 44.26757,136.24202 v 1.8e-4 c -1.31916,11.29549 -5.04879,18.91438 -11.01074,24.26267 -1.29797,0.58866 -1.55246,-0.13699 -1.10254,-0.49709 6.84533,-5.49181 11.46501,-15.71358 11.50391,-32.99023 0.006,-0.33262 0.2767,-0.59941 0.60937,-0.59961 v -1.9e-4 c 0.33267,2e-4 0.60381,0.26698 0.60938,0.59961 0.0388,17.26924 4.65558,27.49087 11.49609,32.98437 0.44594,0.36065 0.19266,1.08153 -1.10254,0.49514 -5.95739,-5.34873 -9.68422,-12.96596 -11.00293,-24.25485 z m 68.07422,-148.35139 c -8.77554,0.40592 -18.53412,5.95447 -28.73437,19.92773 -0.48208,0.62985 -1.43655,-0.0638 -0.98633,-0.7168 10.10805,-13.97855 12.38621,-24.95093 10.09375,-33.41211 -0.0679,-0.24974 0.0291,-0.51516 0.24219,-0.66211 v -1.8e-4 c 0.21247,-0.14633 0.49403,-0.14312 0.93945,0.90642 1.66652,7.82246 0.20343,16.16706 -5.35937,26.06443 7.71714,-8.37379 15.22243,-12.3448 23.20116,-13.15916 1.40198,0.2867 1.18081,1.02612 0.60352,1.05178 z m 22.42383,115.20309 c -3.10014,-8.2175 -11.39391,-15.78079 -27.83008,-21.16211 -0.77343,-0.25131 -0.39647,-1.41146 0.37696,-1.16015 16.43454,5.29908 27.57946,4.0668 34.91796,-0.74024 0.1418,-0.0929 0.31588,-0.12264 0.48047,-0.082 v 10e-6 c 0.34305,0.085 0.5422,0.44296 -0.34863,1.28415 -6.92736,4.0134 -15.32338,5.20262 -26.46777,2.96775 10.34639,4.75052 16.44206,10.6604 19.68359,17.99417 0.15987,1.4191 -0.60868,1.43734 -0.8125,0.89842 z m -188.46289,-23.0625 v -4e-5 c 7.33845,4.80777 18.48434,6.03966 34.91992,0.74024 0.77343,-0.25131 1.15039,0.90884 0.37696,1.16015 -16.3864,5.36502 -24.67876,12.89965 -27.80079,21.08789 -0.20382,0.53892 -0.97237,0.52068 -0.8125,-0.89349 3.25284,-7.30329 9.34022,-13.18842 19.6504,-17.92283 -11.13989,2.23335 -19.53375,1.04342 -26.4629,-2.9678 -0.96396,-1.05281 -0.35311,-1.52009 0.12891,-1.20412 z"
       sodipodi:nodetypes="ccccccccccscccccccccccccccccccccccssccccccccccccc" />
  </g>
</svg>
