<?xml version="1.0" encoding="UTF-8" standalone="no"?>
<!-- Created with Inkscape (http://www.inkscape.org/) -->

<svg
   id="svg2985"
   version="1.1"
   inkscape:version="1.4.3 (1:1.4.3+202512261034+0d15f75042)"
   width="50"
   height="50"
   sodipodi:docname="logo-stamp.svg"
   inkscape:export-filename="/home/tails/Pictures/Designs/Hackspace/Logo/png/logo-bw.png"
   inkscape:export-xdpi="96.096672"
   inkscape:export-ydpi="96.096672"
   xmlns:inkscape="http://www.inkscape.org/namespaces/inkscape"
   xmlns:sodipodi="http://sodipodi.sourceforge.net/DTD/sodipodi-0.dtd"
   xmlns="http://www.w3.org/2000/svg"
   xmlns:svg="http://www.w3.org/2000/svg"
   xmlns:rdf="http://www.w3.org/1999/02/22-rdf-syntax-ns#"
   xmlns:cc="http://creativecommons.org/ns#"
   xmlns:dc="http://purl.org/dc/elements/1.1/">
  <metadata
     id="metadata2991">
    <rdf:RDF>
      <cc:Work
         rdf:about="">
        <dc:format>image/svg+xml</dc:format>
        <dc:type
           rdf:resource="http://purl.org/dc/dcmitype/StillImage" />
      </cc:Work>
    </rdf:RDF>
  </metadata>
  <defs
     id="defs2989">
    <linearGradient
       id="linearGradient6445"
       inkscape:swatch="solid">
      <stop
         style="stop-color:#000000;stop-opacity:1;"
         offset="0"
         id="stop6447" />
    </linearGradient>
    <linearGradient
       id="linearGradient5439"
       inkscape:swatch="solid">
      <stop
         style="stop-color:#93b76b;stop-opacity:1;"
         offset="0"
         id="stop5441" />
    </linearGradient>
  </defs>
  <sodipodi:namedview
     pagecolor="#ffffff"
     bordercolor="#666666"
     borderopacity="1"
     objecttolerance="10"
     gridtolerance="10"
     guidetolerance="10"
     inkscape:pageopacity="0"
     inkscape:pageshadow="2"
     inkscape:window-width="1920"
     inkscape:window-height="1029"
     id="namedview2987"
     showgrid="false"
     showguides="true"
     inkscape:guide-bbox="true"
     inkscape:zoom="8.7624821"
     inkscape:cx="14.322426"
     inkscape:cy="24.251119"
     inkscape:window-x="0"
     inkscape:window-y="25"
     inkscape:window-maximized="1"
     inkscape:current-layer="svg2985"
     units="mm"
     fit-margin-top="20"
     fit-margin-left="20"
     fit-margin-right="20"
     fit-margin-bottom="20"
     inkscape:showpageshadow="0"
     inkscape:pagecheckerboard="0"
     inkscape:deskcolor="#d1d1d1">
    <inkscape:grid
       type="xygrid"
       id="grid2995"
       empspacing="5"
       visible="true"
       enabled="true"
       snapvisiblegridlinesonly="true"
       originx="-474.40808"
       originy="-37.646179"
       spacingy="1"
       spacingx="1"
       units="mm" />
  </sodipodi:namedview>
  <rect
     style="opacity:1;fill:#000000;stroke:#ff0000;stroke-width:0.377953;stroke-linecap:round"
     id="rect1"
     width="50"
     height="50"
     x="0"
     y="0" />
  <g
     id="g1"
     transform="matrix(0.09813554,0,0,0.09813554,4.1407254,3.8783635)"
     style="fill:#ffffff">
    <g
       id="g9"
       style="fill:#ffffff;stroke:#008000">
      <path
         style="display:inline;opacity:1;fill:#ffffff;stroke:none;stroke-width:1px;stroke-linecap:butt;stroke-linejoin:miter;stroke-opacity:1"
         d="m 87.829178,78.703864 0.05863,-37.764796 35.839232,11.650405 -0.57484,2.101513 -31.609225,-10.197649 42.646725,58.450323 -1.74745,1.27839 C 117.37547,87.893362 100.61914,79.285156 87.829178,78.703864 Z"
         id="path5"
         sodipodi:nodetypes="cccccccc"
         inkscape:transform-center-x="101.54017"
         inkscape:transform-center-y="-140.04236" />
      <path
         style="display:inline;opacity:1;fill:#ffffff;stroke:none;stroke-width:1px;stroke-linecap:butt;stroke-linejoin:miter;stroke-opacity:1"
         d="m 301.37347,52.623477 35.93457,-11.614204 -0.005,37.685308 -2.1763,0.102698 -0.0692,-33.213406 -42.411,58.621587 -1.75581,-1.26688 c 10.87361,-19.375199 13.88251,-37.971498 10.48304,-50.315103 z"
         id="path4"
         sodipodi:nodetypes="cccccccc"
         inkscape:transform-center-x="-101.54978"
         inkscape:transform-center-y="-140.01555" />
      <path
         style="display:inline;opacity:1;fill:#ffffff;stroke:none;stroke-width:1px;stroke-linecap:butt;stroke-linejoin:miter;stroke-opacity:1"
         d="m 392.1662,247.65689 22.15016,30.58682 -35.84241,11.64064 -0.77018,-2.03805 31.56644,-10.32932 -68.85816,-22.22019 0.6623,-2.06136 c 21.78704,4.35415 40.40297,1.46921 51.09194,-5.57826 z"
         id="path6"
         sodipodi:nodetypes="cccccccc"
         inkscape:transform-center-x="-164.8146"
         inkscape:transform-center-y="56.147704" />
      <path
         style="display:inline;opacity:1;fill:#ffffff;stroke:none;stroke-width:1px;stroke-linecap:butt;stroke-linejoin:miter;stroke-opacity:1"
         d="m 234.7349,394.27454 -22.24502,30.5179 -22.14682,-30.491 1.7003,-1.36228 19.57833,26.82954 -0.14568,-72.35442 2.16513,-0.007 c 2.59152,22.06621 11.0879,38.87952 21.09352,46.86754 z"
         id="path7"
         sodipodi:nodetypes="cccccccc"
         inkscape:transform-center-x="0.010625"
         inkscape:transform-center-y="173.47694" />
      <path
         style="display:inline;opacity:1;fill:#ffffff;stroke:none;stroke-width:1px;stroke-linecap:butt;stroke-linejoin:miter;stroke-opacity:1"
         d="m 46.644281,289.85583 -35.898337,-11.72572 22.154921,-30.48512 1.821027,1.19611 -19.466372,26.91089 68.768125,-22.4973 0.675719,2.057 c -20.185389,9.28352 -33.550271,22.55965 -38.055423,34.544 z"
         id="path8"
         sodipodi:nodetypes="cccccccc"
         inkscape:transform-center-x="164.82695"
         inkscape:transform-center-y="56.12749" />
    </g>
    <g
       id="g3940"
       transform="matrix(0.43398769,0,0,0.43398769,-19.34526,-22.086655)"
       style="fill:#ffffff">
      <g
         style="display:inline;fill:#ffffff;stroke:none"
         id="g6179">
        <path
           sodipodi:nodetypes="zzzczzscz"
           inkscape:connector-curvature="0"
           id="path5672"
           d="m 639.3479,175.86614 c -30,0 -63.0005,20 -105,20 -41.99953,0 -75,-20 -105,-20 -30,0 -45,20 -5,80 -95,-70 -35,-117 5,-117 40,0 63.00047,17 105,17 41.9995,0 65,-17 105,-17 40,0 100,47 5,117 40,-60 25,-80 -5,-80 z"
           style="fill:#ffffff;fill-opacity:1;stroke:none" />
        <path
           style="fill:#ffffff;fill-opacity:1;stroke:none"
           d="m 1105,245 c -30,0 -63.0005,20 -105,20 -41.99953,0 -75,-20 -105,-20 -30,0 -45,20 -5,80 -95,-70 -35,-117 5,-117 40,0 63.00047,17 105,17 41.9995,0 65,-17 105,-17 40,0 100,47 5,117 40,-60 25,-80 -5,-80 z"
           id="path5766"
           inkscape:connector-curvature="0"
           sodipodi:nodetypes="zzzczzscz"
           transform="rotate(-72,719.59666,895.89065)" />
        <path
           sodipodi:nodetypes="zzzczzscz"
           inkscape:connector-curvature="0"
           id="path5772"
           d="m 1105,245 c -30,0 -63.0005,20 -105,20 -41.99953,0 -75,-20 -105,-20 -30,0 -45,20 -5,80 -95,-70 -35,-117 5,-117 40,0 63.00047,17 105,17 41.9995,0 65,-17 105,-17 40,0 100,47 5,117 40,-60 25,-80 -5,-80 z"
           style="fill:#ffffff;fill-opacity:1;stroke:none"
           transform="rotate(-144,755.94247,651.08281)" />
        <path
           style="fill:#ffffff;fill-opacity:1;stroke:none"
           d="m 1105,245 c -30,0 -63.0005,20 -105,20 -41.99953,0 -75,-20 -105,-20 -30,0 -45,20 -5,80 -95,-70 -35,-117 5,-117 40,0 63.00047,17 105,17 41.9995,0 65,-17 105,-17 40,0 100,47 5,117 40,-60 25,-80 -5,-80 z"
           id="path5778"
           inkscape:connector-curvature="0"
           sodipodi:nodetypes="zzzczzscz"
           transform="rotate(144,778.40543,499.78329)" />
        <path
           sodipodi:nodetypes="zzzczzscz"
           inkscape:connector-curvature="0"
           id="path5784"
           d="m 1105,245 c -30,0 -63.0005,20 -105,20 -41.99953,0 -75,-20 -105,-20 -30,0 -45,20 -5,80 -95,-70 -35,-117 5,-117 40,0 63.00047,17 105,17 41.9995,0 65,-17 105,-17 40,0 100,47 5,117 40,-60 25,-80 -5,-80 z"
           style="fill:#ffffff;fill-opacity:1;stroke:none"
           transform="rotate(72,814.75127,254.9755)" />
      </g>
      <path
         style="fill:#ffffff;stroke:none;stroke-width:1.93474;stroke-miterlimit:4;stroke-dasharray:none"
         inkscape:connector-curvature="0"
         d="M 57,98.501 43.999,85.5 46.217,83.282 30.717,67.781 28.499,70 15.498,57 34.987,37.51 l 13.002,13 -4.234,4.235 2.66,2.661 10.992,-10.993 -2.66,-2.66 -4.089,4.089 L 37.656,34.841 57,15.497 70.001,28.498 67.784,30.716 83.282,46.216 85.501,43.998 98.503,57 79.159,76.343 66.157,63.342 70.246,59.253 68.083,57.09 57.091,68.083 l 2.162,2.162 4.234,-4.234 13.003,13.003 z"
         id="path5390"
         transform="matrix(6.8919699,0,0,6.8919699,141.50427,148.02649)" />
    </g>
    <path
       id="path2"
       style="display:inline;fill:#ffffff;fill-opacity:1;stroke:none;stroke-width:7.08661;stroke-linecap:butt;stroke-linejoin:miter;stroke-miterlimit:4;stroke-dasharray:none;stroke-opacity:1"
       d="m 212.55469,5.6660156 c -24.60419,0 -56.88203,7.1372544 -76.14453,24.7011724 -9.63126,8.781958 -15.96185,20.289859 -16.09766,34.607421 -0.0931,9.815116 2.78063,20.928066 9.20898,33.382813 C 119.6628,88.394893 109.98255,82.22966 100.61914,79.285156 86.960552,74.989949 74.058571,77.452345 62.730469,83.898438 40.074265,96.790622 23.314043,125.28364 15.710938,148.68359 c -7.6031059,23.39996 -10.7906695,56.30398 -0.03906,80.05079 5.375803,11.8734 14.3647,21.4486 27.939453,26.00195 9.305531,3.12133 20.760922,3.82332 34.591797,1.55859 -12.520759,6.29748 -21.376637,13.59869 -27.070313,21.59375 -8.305762,11.66296 -9.948317,24.69512 -7.318359,37.46094 5.259916,25.53164 27.178781,50.27631 47.083985,64.73828 19.905199,14.46198 50.213879,27.66277 76.121089,24.77539 12.95361,-1.44369 24.83789,-7.03375 33.36328,-18.53711 5.84503,-7.88672 10.05209,-18.56708 12.17188,-32.42383 2.11986,13.85675 6.32671,24.53711 12.17187,32.42383 8.5256,11.50335 20.4114,17.09342 33.36524,18.53711 25.90767,2.88738 56.21589,-10.3134 76.12109,-24.77539 19.90522,-14.46199 41.82458,-39.20663 47.08399,-64.73828 2.6297,-12.76583 0.98562,-25.798 -7.32032,-37.46094 -5.6938,-7.99505 -14.54952,-15.29628 -27.07031,-21.59375 13.83094,2.26472 25.28614,1.56274 34.5918,-1.55859 13.57493,-4.55335 22.56536,-14.12856 27.9414,-26.00195 10.7521,-23.7468 7.56406,-56.65082 -0.0391,-80.05079 -7.60312,-23.39996 -24.3648,-51.892979 -47.02148,-64.785152 -11.32835,-6.446087 -24.22796,-8.908484 -37.88672,-4.613282 -9.36353,2.944501 -19.04557,9.109739 -28.9043,19.072266 6.42836,-12.454746 9.30209,-23.567698 9.20899,-33.382813 C 304.66106,50.657047 298.33047,39.149147 288.69922,30.367188 269.43672,12.803269 237.15887,5.6660156 212.55469,5.6660156 Z m 0,3.140625 c 23.98563,0 55.75802,7.2207554 74.02929,23.8808594 9.13564,8.330052 14.94499,18.901106 15.07227,32.318359 0.12728,13.417254 -5.50332,29.804285 -19.74414,49.498051 a 1.5749836,1.5749836 0 0 0 2.54687,1.84961 c 14.32923,-19.629532 28.17473,-30.047157 40.97461,-34.07227 12.79989,-4.025113 24.64718,-1.768676 35.39258,4.345703 21.49081,12.228759 38.17592,40.215657 45.58789,63.027347 7.41198,22.81168 10.36285,55.26037 0.16406,77.78515 -5.09939,11.26239 -13.35677,20.05328 -26.07812,24.32032 -12.72135,4.26703 -30.04716,3.97569 -53.17773,-3.48243 a 1.5749836,1.5749836 0 0 0 -0.97266,2.99414 c 23.09675,7.56205 37.28469,17.50988 45.06836,28.43946 7.78366,10.92957 9.29711,22.895 6.80273,35.0039 -4.98875,24.21781 -26.44872,48.73559 -45.85351,62.83399 -19.40477,14.0984 -49.35322,26.93216 -73.92774,24.19336 -12.28725,-1.3694 -23.19995,-6.5071 -31.18945,-17.28711 -7.9895,-10.78001 -13.06645,-27.34726 -13.12109,-51.65039 a 1.5749836,1.5749836 0 0 0 -3.14844,0 c -0.0546,24.30313 -5.13179,40.87038 -13.12109,51.65039 -7.98931,10.78001 -18.90049,15.91771 -31.1875,17.28711 -24.57404,2.7388 -54.52295,-10.09495 -73.927739,-24.19336 -19.404791,-14.09841 -40.866222,-38.61617 -45.855469,-62.83399 -2.494624,-12.1089 -0.980748,-24.07433 6.802734,-35.0039 7.783483,-10.92957 21.971589,-20.87741 45.06836,-28.43946 a 1.5749836,1.5749836 0 0 0 -0.972657,-2.99414 c -23.130544,7.45813 -40.456587,7.74945 -53.177734,3.48243 C 31.888228,247.49274 23.63041,238.70184 18.53125,227.43945 8.3329293,204.91468 11.285293,172.46601 18.697266,149.6543 26.109242,126.84258 42.792895,98.855702 64.283203,86.626953 75.028357,80.512579 86.876082,78.256137 99.675781,82.28125 c 12.799699,4.025113 26.645379,14.442727 40.974609,34.07227 a 1.5749836,1.5749836 0 0 0 2.54688,-1.84961 C 128.95644,94.810142 123.32585,78.423113 123.45312,65.005859 123.5804,51.588606 129.38975,41.017551 138.52539,32.6875 156.79667,16.027397 188.56905,8.8066406 212.55469,8.8066406 Z" />
  </g>
</svg>
